PathFileType	4	(X/Y/Z)	 s11c0402.trc
DataRate	CameraRate	NumFrames	NumMarkers	Units	OrigDataRate	OrigDataStartFrame	OrigNumFrames
200	200	4	48	mm	200	1001	2000
Frame#	Time	racr			lacr			c7			jug			rlel			rdr			llel			ldr			s2			lic			ric			lasi			rasi			rpsi			lpsi			rgt			lgt			rth1			rth2			rth3			rth4			rlfc			rmfc			rsh1			rsh2			rsh3			rsh4			rlmal			rcal			rtoe			rmt5			lth1			lth2			lth4			lth3			llfc			lmfc			llmal			lcal			lmt5			lsh1			lsh2			lsh3			lsh4			ltoe			SBIKE			LBIKE			RBIKE			
		X1	Y1	Z1	X2	Y2	Z2	X3	Y3	Z3	X4	Y4	Z4	X5	Y5	Z5	X6	Y6	Z6	X7	Y7	Z7	X8	Y8	Z8	X9	Y9	Z9	X10	Y10	Z10	X11	Y11	Z11	X12	Y12	Z12	X13	Y13	Z13	X14	Y14	Z14	X15	Y15	Z15	X16	Y16	Z16	X17	Y17	Z17	X18	Y18	Z18	X19	Y19	Z19	X20	Y20	Z20	X21	Y21	Z21	X22	Y22	Z22	X23	Y23	Z23	X24	Y24	Z24	X25	Y25	Z25	X26	Y26	Z26	X27	Y27	Z27	X28	Y28	Z28	X29	Y29	Z29	X30	Y30	Z30	X31	Y31	Z31	X32	Y32	Z32	X33	Y33	Z33	X34	Y34	Z34	X35	Y35	Z35	X36	Y36	Z36	X37	Y37	Z37	X38	Y38	Z38	X39	Y39	Z39	X40	Y40	Z40	X41	Y41	Z41	X42	Y42	Z42	X43	Y43	Z43	X44	Y44	Z44	X45	Y45	Z45	X46	Y46	Z46	X47	Y47	Z47	X48	Y48	Z48	
1001	5.0050	861.671689	1322.557209	-55.016774	821.529206	1340.540111	-406.815924	825.332826	1426.896576	-225.563953	794.058295	1238.320746	-239.748660	644.639957	1159.489663	74.981956	779.027168	964.399419	-33.563738	585.216218	1157.764729	-555.788763	778.899509	955.479589	-444.259553	207.542939	1280.540579	-204.702178	423.780014	1290.288886	-411.896376	425.982051	1214.144255	-17.381262	437.970888	1206.646855	-370.413521	440.317562	1156.684787	-60.574993	272.843673	1335.965341	-141.064526	263.070731	1343.014922	-232.559750	305.570830	1084.539638	-15.594603	340.839959	1181.941748	-433.626065	324.968943	953.733295	-12.041273	356.803785	871.214118	-26.578069	343.678058	787.380354	-50.364666	393.080912	876.715073	-33.856686	360.203279	688.484822	-76.374712	348.771091	675.276123	-202.926597	286.594183	549.568817	-60.578374	271.938054	463.927588	-78.218501	217.664607	395.870448	-80.593056	297.297252	456.244573	-107.259265	156.081749	271.671609	-93.188227	94.198961	286.171565	-142.717704	336.239868	129.299537	-134.907349	259.863872	134.335515	-67.201177	464.888676	1096.453723	-447.879399	540.342598	1060.667779	-439.916040	591.312135	1080.414610	-404.168416	593.396008	988.711948	-446.099471	686.958972	890.637297	-422.126860	689.258774	868.923978	-289.201333	332.399234	647.309507	-408.958704	268.758009	667.980390	-375.443615	339.975350	471.519215	-436.600776	589.522106	820.921883	-441.347068	536.948822	753.483547	-428.968652	455.923714	718.403185	-426.242527	557.874286	729.995949	-407.363182	408.305344	404.001718	-368.369472	-204.168959	954.652169	-261.094328	1.354934	82.685412	-460.941258	-15.229913	81.020712	-62.336622	
1002	5.0100	862.783543	1323.350627	-57.168161	820.347305	1341.057631	-409.099004	825.724969	1426.587625	-227.928628	793.765647	1238.647276	-241.368176	646.780550	1160.334340	73.967521	779.104609	964.381144	-34.138555	583.835778	1156.528389	-557.153231	779.423505	955.786614	-445.841352	208.190553	1281.716613	-203.333673	422.245377	1292.110769	-411.555162	428.271338	1215.239385	-18.130416	437.394831	1208.300126	-370.297782	441.809039	1157.791460	-61.568008	273.344581	1337.567388	-139.739684	262.939435	1344.744210	-231.370477	307.087390	1086.318137	-14.718863	340.234507	1183.795937	-433.321275	325.220820	955.931038	-11.341401	356.175517	873.065801	-25.553290	342.533690	789.359079	-49.221244	392.530129	878.155346	-32.474724	359.230853	689.550851	-75.250078	348.165363	677.550870	-202.114482	283.988251	551.630339	-59.919027	268.061043	466.281090	-77.769965	212.727115	399.111699	-80.398790	293.404801	458.184509	-106.651758	149.465990	276.082035	-93.356699	88.232805	291.988292	-143.123431	326.127603	129.100389	-135.171201	249.788527	136.046114	-67.407246	465.167842	1097.578973	-447.300014	541.056273	1062.596045	-439.212640	591.735899	1082.878119	-403.902837	591.447782	991.387123	-445.872270	689.388892	895.344799	-421.931639	692.940408	873.447589	-287.712659	338.945481	645.438506	-408.177085	274.435141	664.975286	-375.251090	350.254394	470.126273	-436.170163	593.419825	823.376600	-439.861599	541.924989	755.046944	-427.790040	461.535408	718.558636	-425.248150	563.269396	731.855426	-406.006307	419.931138	404.179037	-368.094576	-204.219326	954.659322	-261.135705	1.361564	82.694647	-460.950374	-15.192022	81.065279	-62.429916	
1003	5.0150	863.869861	1323.882141	-59.315797	819.265008	1341.204139	-411.370084	826.093727	1425.917604	-230.404859	793.221812	1238.752959	-242.852049	648.674393	1161.038705	73.148914	779.103089	964.226146	-34.084532	582.354830	1155.493026	-558.474588	780.085609	956.048720	-447.737664	208.476802	1283.383929	-201.113539	420.783285	1293.958855	-411.044190	430.313075	1216.084038	-19.050697	436.800093	1209.890914	-370.344114	443.220979	1159.048919	-62.500778	273.775379	1339.459522	-138.181120	262.835197	1346.658437	-230.320737	308.619865	1088.303766	-13.697167	339.596216	1185.444746	-433.176688	325.309909	958.552290	-10.765008	356.388765	875.212170	-24.534963	342.374709	791.623168	-48.300071	392.740976	880.223892	-31.197756	359.743233	691.156215	-73.991935	349.354074	679.726955	-200.867312	282.450980	554.058928	-59.102931	265.091580	469.094202	-77.179705	208.667470	402.849066	-80.081611	290.278142	460.600027	-106.163351	143.366055	280.974404	-93.384950	82.843091	298.572407	-143.443967	316.122014	129.161890	-135.462121	240.021039	138.260001	-67.719005	465.222413	1098.535694	-446.674276	545.694824	1063.500961	-435.944327	588.497867	1090.998866	-403.335143	592.439749	993.618260	-444.806279	691.035743	898.865225	-421.251469	696.404035	877.871927	-285.513316	345.082983	642.944393	-407.264411	279.878212	660.972872	-374.944246	360.345616	468.380123	-436.149744	596.904941	825.323915	-438.493413	546.626267	755.930635	-426.494069	466.772575	718.272266	-424.365650	568.129888	733.421699	-404.706143	431.579557	403.882782	-367.689955	-204.272915	954.685125	-261.245415	1.350275	82.714734	-460.929269	-15.195709	81.077629	-62.459603	
1004	5.0200	864.869535	1324.064717	-61.361117	818.244715	1341.057609	-413.682152	826.584683	1425.134010	-232.782184	792.609615	1238.718793	-244.338556	650.306967	1161.590313	72.599012	779.192027	964.197634	-33.778511	580.859714	1154.604298	-559.604635	780.757556	956.257591	-449.878871	208.691370	1285.141165	-199.887716	419.486241	1295.787703	-410.598743	432.424706	1217.542248	-19.804288	436.149668	1211.503479	-370.852471	444.668763	1160.443295	-63.211620	274.047364	1341.218510	-136.752169	262.137919	1348.759196	-228.526410	310.069541	1090.407689	-12.716738	338.893106	1187.062361	-433.097750	326.471963	960.779369	-10.166327	357.339123	877.568258	-23.601870	343.427526	794.141686	-47.429934	393.830291	882.654259	-30.065181	361.612915	692.926718	-72.727057	352.345134	681.692610	-199.187944	281.859540	556.796320	-58.229723	263.038507	472.190918	-76.518911	205.361811	407.043585	-79.718725	288.112686	463.357329	-105.342444	137.708597	286.434430	-93.477867	78.058630	305.950791	-143.782522	306.163400	129.986625	-135.653406	230.432123	141.113116	-67.984779	465.067648	1099.314688	-446.084534	552.546774	1063.683912	-431.157330	588.528292	1092.841314	-403.221476	593.218640	995.478334	-443.633298	691.969487	902.197903	-420.202579	698.521229	881.780640	-284.344241	350.700591	639.845290	-406.407783	284.667280	656.248576	-374.482892	370.300796	465.865181	-435.800749	599.810771	826.694171	-437.197147	550.746930	756.424927	-425.377957	471.538477	717.379634	-423.586895	572.531180	734.387058	-403.440286	442.844289	403.070661	-367.149548	-204.278462	954.715428	-261.303404	1.388544	82.758228	-460.968222	-15.193330	81.105452	-62.470045	
